<?xml version="1.0" encoding="UTF-8"?>
<svg id="Laag_1" data-name="Laag 1" xmlns="http://www.w3.org/2000/svg" viewBox="0 0 566.46 141.47">
  <defs>
    <style>
      .cls-1 {
        fill: #fff;
      }
    </style>
  </defs>
  <path class="cls-1" d="M30.27,75.55c0-10.3,8.58-18.71,18.71-18.71,3.61,0,7.04.86,10.13,3.09v-16.56h9.61v32.18c0,10.3-8.93,18.71-19.23,18.71-11.16,0-19.23-7.56-19.23-18.71ZM59.11,75.55c0-5.66-3.95-9.79-9.61-9.79s-9.61,4.12-9.61,9.79,4.12,9.79,9.61,9.79,9.61-4.29,9.61-9.79Z"/>
  <path class="cls-1" d="M77.33,75.55c0-10.3,8.93-18.71,19.23-18.71,11.16,0,18.54,7.04,19.23,18.71v3.26h-29.01c1.2,4.29,4.98,7.21,9.79,7.21,3.09,0,4.8-.86,7.38-3.26l5.84,6.01c-3.43,3.43-8.07,5.49-13.22,5.49-11.16,0-19.23-7.56-19.23-18.71ZM96.56,64.56c-4.81,0-8.24,2.92-9.61,6.87h19.4c-1.38-4.12-4.81-6.87-9.79-6.87Z"/>
  <path class="cls-1" d="M147.5,75.55c0-10.3,8.93-18.71,19.23-18.71,11.16,0,19.23,7.56,19.23,18.71v17.85h-9.44v-3.09c-2.24,2.4-6.19,3.95-10.64,3.95-10.82,0-18.37-7.56-18.37-18.71ZM176.34,75.55c0-5.66-3.95-9.79-9.61-9.79s-9.62,4.12-9.62,9.79,4.12,9.79,9.62,9.79,9.61-4.29,9.61-9.79Z"/>
  <path class="cls-1" d="M207.27,57.7v35.71h-9.62v-35.71h9.62Z"/>
  <path class="cls-1" d="M266.17,85.34c1.72,0,2.92-1.2,2.92-2.92,0-1.54-1.2-2.75-2.92-2.75h-13.9c-6.01,0-10.99-4.81-10.99-10.99,0-5.84,4.98-10.99,10.99-10.99h21.28v8.07h-20.43c-1.54,0-2.91,1.2-2.91,2.75,0,1.72,1.2,2.92,2.91,2.92h13.91c6.01,0,10.99,4.63,10.99,10.99,0,5.66-4.98,10.99-10.99,10.99h-24.72v-8.07h23.86Z"/>
  <path class="cls-1" d="M284.22,66.62v-8.93h4.81v-14.32h9.62v14.32h4.8v8.93h-4.8v26.78h-9.62v-26.78h-4.81Z"/>
  <path class="cls-1" d="M325.09,57.7h3.43v8.93h-2.75c-2.57,0-4.46,1.72-4.46,4.47v22.32h-9.62v-22.32c0-7.9,5.67-13.39,13.39-13.39Z"/>
  <path class="cls-1" d="M334.72,75.55c0-10.3,8.93-18.71,19.23-18.71,11.16,0,19.23,7.56,19.23,18.71v17.85h-9.44v-3.09c-2.24,2.4-6.19,3.95-10.64,3.95-10.82,0-18.37-7.56-18.37-18.71ZM363.56,75.55c0-5.66-3.95-9.79-9.61-9.79s-9.62,4.12-9.62,9.79,4.12,9.79,9.62,9.79,9.61-4.29,9.61-9.79Z"/>
  <path class="cls-1" d="M382.13,66.62v-8.93h4.81v-14.32h9.62v14.32h4.8v8.93h-4.8v26.78h-9.62v-26.78h-4.81Z"/>
  <path class="cls-1" d="M407.9,75.55c0-10.3,8.93-18.71,19.23-18.71,11.16,0,18.54,7.04,19.23,18.71v3.26h-29.01c1.2,4.29,4.98,7.21,9.79,7.21,3.09,0,4.8-.86,7.38-3.26l5.84,6.01c-3.43,3.43-8.07,5.49-13.22,5.49-11.16,0-19.23-7.56-19.23-18.71ZM427.12,64.56c-4.81,0-8.24,2.92-9.62,6.87h19.4c-1.38-4.12-4.81-6.87-9.79-6.87Z"/>
  <path class="cls-1" d="M452.3,75.55c0-10.3,8.93-18.71,19.23-18.71,11.16,0,18.54,7.04,19.23,18.71v3.26h-29.01c1.2,4.29,4.98,7.21,9.79,7.21,3.09,0,4.8-.86,7.38-3.26l5.84,6.01c-3.43,3.43-8.07,5.49-13.22,5.49-11.16,0-19.23-7.56-19.23-18.71ZM471.53,64.56c-4.81,0-8.24,2.92-9.62,6.87h19.4c-1.38-4.12-4.81-6.87-9.79-6.87Z"/>
  <path class="cls-1" d="M498.07,93.75h9.1c0,5.84,3.95,9.96,9.79,9.96s9.79-4.47,9.79-10.3v-3.09c-2.06,2.4-6.18,3.95-10.64,3.95-10.81,0-18.37-7.56-18.37-18.71,0-10.3,8.93-18.71,19.23-18.71,11.16,0,19.23,7.56,19.23,18.71v17.85c0,11.16-8.93,18.71-19.23,18.71-11.33,0-18.89-7.04-18.89-18.37ZM526.57,75.55c0-5.66-3.94-9.79-9.61-9.79s-9.62,4.12-9.62,9.79,4.12,9.79,9.62,9.79,9.61-4.29,9.61-9.79Z"/>
</svg>